<svg xmlns="http://www.w3.org/2000/svg" width="1487.19" height="1052.362">
    <path d="M737.947 319.27c0 48.816-39.573 88.39-88.39 88.39-48.814 0-88.387-39.574-88.387-88.39 0-48.815 39.573-88.388 88.388-88.388 48.816 0 88.39 39.573 88.39 88.388z" fill="#fff" stroke="#000" stroke-width="5" stroke-opacity=".69"/>
    <path d="M649.633 270.446c6.692 0 12.118-5.425 12.118-12.117 0-6.7-5.42-12.12-12.11-12.12s-12.115 5.42-12.115 12.12c0 6.69 5.425 12.11 12.117 12.11zm-12.967 2.674c-8.58 0-15.482 6.998-15.482 15.726v37.204c0 7.233 10.586 7.233 10.586 0v-34.02h2.506v93.15c0 9.67 14.096 9.386 14.096 0v-54.07h2.428v54.07c0 9.386 14.173 9.67 14.173 0v-93.15h2.447v34.02c0 7.29 10.53 7.29 10.512 0v-36.98c0-8.05-6.25-15.934-15.672-15.934l-25.594-.017z" fill-opacity=".69"/>
    <path d="M312.618 189.398c0 48.816-39.573 88.39-88.39 88.39-48.814 0-88.387-39.574-88.387-88.39 0-48.815 39.58-88.388 88.39-88.388 48.82 0 88.39 39.573 88.39 88.388z" fill="#fff" stroke="#000" stroke-width="5" stroke-opacity=".69"/>
    <path d="M224.305 140.574c6.69 0 12.117-5.425 12.117-12.117 0-6.692-5.426-12.118-12.117-12.118-6.693 0-12.118 5.42-12.118 12.11s5.425 12.115 12.118 12.115zm-12.968 2.676c-8.58 0-15.482 6.998-15.482 15.726v37.204c0 7.233 10.586 7.233 10.586 0v-34.02h2.51v93.15c0 9.67 14.1 9.386 14.1 0v-54.07h2.43v54.07c0 9.386 14.174 9.67 14.174 0v-93.15h2.447v34.02c0 7.29 10.53 7.29 10.513 0V159.2c0-8.05-6.25-15.934-15.674-15.934l-25.594-.017z" fill-opacity=".69"/>
    <path d="M372.378 807.014c0 48.815-39.573 88.388-88.388 88.388-48.816 0-88.39-39.573-88.39-88.388 0-48.816 39.574-88.388 88.39-88.388 48.815 0 88.388 39.572 88.388 88.388z" fill="#fff" stroke="#000" stroke-width="5" stroke-opacity=".69"/>
    <path d="M284.065 758.19c6.69 0 12.117-5.426 12.117-12.118s-5.426-12.117-12.117-12.117c-6.693 0-12.117 5.425-12.117 12.117 0 6.692 5.424 12.118 12.117 12.118zm-12.968 2.674c-8.58 0-15.482 7-15.482 15.727v37.21c0 7.238 10.586 7.238 10.586 0v-34.02h2.51v93.15c0 9.67 14.1 9.39 14.1 0v-54.07h2.43v54.07c0 9.39 14.174 9.67 14.174 0v-93.15h2.447v34.02c0 7.29 10.53 7.29 10.513 0v-36.98c0-8.05-6.25-15.93-15.674-15.93l-25.594-.015z" fill-opacity=".69"/>
    <path d="M1142.367 418.397c0 48.815-39.573 88.388-88.388 88.388-48.82 0-88.39-39.573-88.39-88.388 0-48.816 39.57-88.39 88.39-88.39 48.81 0 88.38 39.574 88.38 88.39z" fill="#fff" stroke="#000" stroke-width="5" stroke-opacity=".69"/>
    <path d="M1054.054 369.573c6.692 0 12.117-5.426 12.117-12.118s-5.42-12.118-12.11-12.118-12.114 5.426-12.114 12.118 5.425 12.118 12.117 12.118zm-12.967 2.673c-8.58 0-15.482 7-15.482 15.727v37.204c0 7.233 10.586 7.233 10.586 0v-34.02h2.51v93.15c0 9.67 14.1 9.386 14.1 0v-54.07h2.43v54.07c0 9.386 14.174 9.67 14.174 0v-93.15h2.447v34.02c0 7.29 10.53 7.29 10.513 0v-36.98c0-8.05-6.25-15.934-15.674-15.934l-25.594-.017z" fill-opacity=".69"/>
    <path d="M837.45 707.608c0 48.816-39.574 88.39-88.39 88.39-48.815 0-88.388-39.574-88.388-88.39 0-48.815 39.573-88.388 88.388-88.388 48.816 0 88.39 39.573 88.39 88.388z" fill="#fff" stroke="#f50" stroke-width="5"/>
    <path d="M749.136 658.784c6.69 0 12.117-5.425 12.117-12.118 0-6.69-5.426-12.117-12.117-12.117-6.693 0-12.118 5.42-12.118 12.11 0 6.69 5.425 12.12 12.118 12.12zm-12.968 2.676c-8.58 0-15.482 6.997-15.482 15.726v37.204c0 7.233 10.586 7.233 10.586 0v-34.02h2.506v93.15c0 9.672 14.096 9.387 14.096 0v-54.07h2.428v54.073c0 9.387 14.174 9.672 14.174 0v-93.15h2.447v34.02c0 7.29 10.53 7.29 10.512 0V677.41c0-8.05-6.25-15.932-15.673-15.932l-25.594-.016z" fill="#f50"/>
    <path d="M1257.614 887.092a88.388 88.388 0 1 1-176.777 0 88.388 88.388 0 1 1 176.777 0z" fill="#fff" stroke="#000" stroke-width="5" stroke-opacity=".69"/>
    <path d="M1169.3 838.268c6.693 0 12.118-5.425 12.118-12.117 0-6.69-5.425-12.11-12.117-12.11-6.69 0-12.11 5.428-12.11 12.12 0 6.693 5.428 12.118 12.12 12.118zm-12.966 2.674c-8.58 0-15.482 7-15.482 15.727v37.2c0 7.23 10.586 7.23 10.586 0v-34.02h2.506V953c0 9.67 14.096 9.387 14.096 0v-54.07h2.428V953c0 9.387 14.173 9.67 14.173 0v-93.15h2.45v34.02c0 7.29 10.53 7.29 10.51 0v-36.98c0-8.05-6.25-15.933-15.67-15.933l-25.59-.018z" fill-opacity=".69"/>
    <path d="M1339.466 160.883c0 48.816-39.573 88.39-88.388 88.39-48.816 0-88.39-39.574-88.39-88.39 0-48.815 39.574-88.388 88.39-88.388 48.815 0 88.388 39.573 88.388 88.388z" fill="#fff" stroke="#000" stroke-width="5" stroke-opacity=".69"/>
    <path d="M1251.153 112.06c6.69 0 12.117-5.426 12.117-12.12 0-6.69-5.426-12.116-12.117-12.116-6.693 0-12.117 5.426-12.117 12.117 0 6.7 5.424 12.12 12.117 12.12zm-12.968 2.673c-8.58 0-15.482 7-15.482 15.727v37.204c0 7.233 10.586 7.233 10.586 0v-34.02h2.5v93.15c0 9.67 14.092 9.386 14.092 0v-54.07h2.43v54.07c0 9.386 14.17 9.67 14.17 0v-93.15h2.448v34.02c0 7.29 10.53 7.29 10.51 0v-36.98c0-8.05-6.25-15.934-15.67-15.934l-25.595-.017z" fill-opacity=".69"/>
    <path d="M320.06 216.91l236.098 68.69m188.037 63.246L955.08 398.03m160.6-58.6l76.296-99.318m-525.05 176.534l57.084 194.658" fill="none" stroke="#000" stroke-width="5" stroke-linecap="round" stroke-opacity=".69"/>
    <path d="M988.45 493.092L828.09 648.854" fill="#f50" stroke="#000" stroke-width="5" stroke-linecap="round" stroke-opacity=".69"/>
    <path d="M381.922 787.07l270.22-60.368m178.23 37.78l242.706 98.56M662.21 661.53L276.333 274.42M572.02 378.946l-242.27 339.7m411.317-439.294l412.267-108.123m87.88 90.34l-54.11 527.86m-100.576-280.25l46.462 285.44" fill="none" stroke="#000" stroke-width="5" stroke-linecap="round" stroke-opacity=".69"/>
</svg>