<?xml version="1.0" standalone="no"?>
<!DOCTYPE svg PUBLIC "-//W3C//DTD SVG 20010904//EN"
 "http://www.w3.org/TR/2001/REC-SVG-20010904/DTD/svg10.dtd">
<svg version="1.0" xmlns="http://www.w3.org/2000/svg"
 width="16.000000pt" height="16.000000pt" viewBox="0 0 16.000000 16.000000"
 preserveAspectRatio="xMidYMid meet">
<metadata>
Created by potrace 1.11, written by Peter Selinger 2001-2013
</metadata>
<g transform="translate(0.000000,16.000000) scale(0.006250,-0.006250)"
fill="#000000" stroke="none">
<path d="M1209 2468 c-12 -5 -28 -7 -34 -4 -10 3 -41 -3 -145 -29 -8 -2 -16
-4 -17 -5 -2 -2 -6 -3 -10 -4 -5 -1 -19 -8 -33 -16 -14 -7 -25 -12 -25 -10 0
1 -21 -8 -47 -20 -27 -12 -48 -27 -48 -33 0 -6 -3 -8 -6 -4 -10 10 -107 -81
-99 -94 3 -4 -8 -15 -23 -25 -45 -29 -89 -90 -84 -116 1 -5 -3 -8 -10 -8 -6 0
-9 -3 -5 -6 3 -4 0 -22 -8 -40 -8 -19 -11 -34 -8 -34 3 0 1 -6 -4 -12 -5 -7
-9 -37 -9 -65 1 -29 -2 -53 -5 -53 -11 0 11 -278 25 -316 3 -6 -6 -16 -20 -23
-13 -6 -25 -16 -25 -23 -1 -7 -3 -23 -4 -35 -1 -13 1 -23 4 -23 3 0 7 -13 7
-30 1 -16 5 -37 9 -47 4 -10 9 -29 11 -43 6 -53 17 -96 30 -122 15 -30 49 -52
63 -43 10 6 26 -33 18 -42 -3 -3 -65 -5 -137 -5 l-130 -1 -26 -30 c-14 -16
-22 -33 -17 -36 11 -8 12 -51 1 -51 -5 0 -6 -5 -2 -11 4 -6 7 -64 8 -128 1
-64 4 -120 8 -126 3 -5 5 -31 4 -57 -2 -27 0 -48 3 -48 3 0 6 -31 5 -69 0 -62
-3 -71 -30 -98 -39 -39 -77 -94 -77 -110 0 -7 -4 -13 -9 -13 -4 0 -8 -7 -8
-15 0 -8 -5 -15 -11 -15 -6 0 -9 -6 -6 -14 3 -7 0 -19 -6 -25 -10 -10 -17 -30
-19 -58 -1 -7 -5 -13 -10 -13 -5 0 -6 -4 -3 -10 3 -5 3 -16 -2 -22 -4 -7 -9
-22 -11 -33 -7 -37 -8 -40 -15 -52 -5 -7 -6 -13 -3 -13 3 0 1 -11 -4 -25 l-10
-25 1099 0 c968 0 1100 2 1105 15 3 8 0 15 -6 15 -6 0 -9 3 -5 6 3 3 -1 29
-10 57 -8 28 -16 58 -18 68 -2 10 -9 27 -15 38 -6 12 -7 21 -3 21 4 0 3 4 -3
8 -6 4 -18 26 -27 50 -19 47 -60 115 -88 146 -11 11 -20 25 -20 30 -5 43 -3
232 3 236 4 3 10 57 13 120 3 63 7 134 9 158 1 24 -1 45 -5 48 -5 2 -6 10 -4
17 3 7 -5 24 -18 39 -24 27 -24 27 -150 26 -70 -1 -131 2 -137 8 -18 18 6 38
52 43 5 1 31 63 33 81 0 3 4 11 8 18 5 6 5 17 2 22 -4 6 -2 17 4 24 6 7 12 32
15 57 2 24 5 44 6 44 1 0 4 22 6 48 3 32 -1 53 -10 62 -7 8 -16 12 -19 9 -3
-3 -10 3 -16 14 -6 12 -7 22 -2 24 24 8 41 215 30 360 -2 27 -6 48 -9 48 -3 0
-6 11 -6 25 -3 52 -81 192 -138 249 -47 47 -160 124 -176 119 -3 -1 -9 2 -15
7 -8 6 -87 32 -135 45 -23 6 -101 19 -125 20 -16 1 -30 3 -30 5 0 7 -166 5
-186 -2z"/>
</g>
</svg>
